<svg width="192" height="192" xmlns="http://www.w3.org/2000/svg">
  <!-- Fondo degradado rojo -->
  <defs>
    <linearGradient id="grad1" x1="0%" y1="0%" x2="100%" y2="100%">
      <stop offset="0%" style="stop-color:#E53E3E;stop-opacity:1" />
      <stop offset="100%" style="stop-color:#C53030;stop-opacity:1" />
    </linearGradient>
  </defs>
  <rect width="192" height="192" rx="40" fill="url(#grad1)"/>
  
  <!-- Corazón (esperanza) -->
  <path d="M96 150 L70 124 C50 104 40 90 40 76 C40 58 52 46 68 46 C78 46 88 52 96 62 C104 52 114 46 124 46 C140 46 152 58 152 76 C152 90 142 104 122 124 Z" fill="white" opacity="0.9"/>
  
  <!-- Mano protectora -->
  <path d="M96 70 L88 62 L88 48 C88 42 92 38 96 38 C100 38 104 42 104 48 L104 62 Z" fill="white" opacity="0.7"/>
</svg>
